<svg width="21" height="11" viewBox="0 0 21 11" fill="none" xmlns="http://www.w3.org/2000/svg">
<path d="M2.52878 5.5C2.52878 3.79 3.91878 2.4 5.62878 2.4H9.62878V0.5H5.62878C4.3027 0.5 3.03093 1.02678 2.09325 1.96447C1.15557 2.90215 0.628784 4.17392 0.628784 5.5C0.628784 6.82608 1.15557 8.09785 2.09325 9.03553C3.03093 9.97322 4.3027 10.5 5.62878 10.5H9.62878V8.6H5.62878C3.91878 8.6 2.52878 7.21 2.52878 5.5ZM6.62878 6.5H14.6288V4.5H6.62878V6.5ZM15.6288 0.5H11.6288V2.4H15.6288C17.3388 2.4 18.7288 3.79 18.7288 5.5C18.7288 7.21 17.3388 8.6 15.6288 8.6H11.6288V10.5H15.6288C16.9549 10.5 18.2266 9.97322 19.1643 9.03553C20.102 8.09785 20.6288 6.82608 20.6288 5.5C20.6288 4.17392 20.102 2.90215 19.1643 1.96447C18.2266 1.02678 16.9549 0.5 15.6288 0.5Z" fill="white"/>
</svg>
