<svg width="14" height="14" viewBox="0 0 14 14" fill="none" xmlns="http://www.w3.org/2000/svg">
<path d="M2.65105 1.57618C2.24162 1.57618 1.84896 1.74032 1.55945 2.03248C1.26994 2.32465 1.1073 2.72091 1.1073 3.13409V8.21781C1.1073 8.63099 1.26994 9.02725 1.55945 9.31942C1.84896 9.61158 2.24162 9.77572 2.65105 9.77572H3.7073V12.3464L7.31577 9.77572H10.9385C11.348 9.77572 11.7406 9.61158 12.0301 9.31942C12.3197 9.02725 12.4823 8.63099 12.4823 8.21781V3.13409C12.4823 2.72091 12.3197 2.32465 12.0301 2.03248C11.7406 1.74032 11.348 1.57618 10.9385 1.57618H2.65105ZM0.2948 3.13409C0.2948 2.50344 0.543047 1.89862 0.98493 1.45269C1.42681 1.00675 2.02613 0.756226 2.65105 0.756226H10.9385C11.5635 0.756226 12.1628 1.00675 12.6047 1.45269C13.0466 1.89862 13.2948 2.50344 13.2948 3.13409V8.21781C13.2948 8.84845 13.0466 9.45327 12.6047 9.89921C12.1628 10.3451 11.5635 10.5957 10.9385 10.5957H7.57382L4.04757 13.1074C3.56332 13.4524 2.8948 13.1028 2.8948 12.5045V10.5957H2.65105C2.02613 10.5957 1.42681 10.3451 0.98493 9.89921C0.543047 9.45327 0.2948 8.84845 0.2948 8.21781V3.13409Z" fill="#808080"/>
</svg>
