<svg width="16" height="10" viewBox="0 0 16 10" fill="none" xmlns="http://www.w3.org/2000/svg">
<path fill-rule="evenodd" clip-rule="evenodd" d="M6.37333 2.38664C6.88515 2.03631 7.48838 1.84691 8.1068 1.84235C8.51846 1.83932 8.92667 1.9183 9.30803 2.07476C9.68939 2.23123 10.0364 2.4621 10.3292 2.75415C10.622 3.0462 10.8548 3.39369 11.0142 3.7767C11.1737 4.15971 11.2567 4.57071 11.2585 4.98616C11.2612 5.61027 11.0806 6.22119 10.7394 6.74176C10.3982 7.26232 9.91186 7.66918 9.3417 7.91095C8.77154 8.15272 8.14318 8.21856 7.53596 8.10014C6.92875 7.98172 6.36993 7.68436 5.93009 7.24561C5.49024 6.80687 5.1891 6.24643 5.06469 5.63506C4.94029 5.0237 4.9982 4.38885 5.23111 3.81068C5.46403 3.23251 5.8615 2.73697 6.37333 2.38664ZM6.88298 6.8498C7.2442 7.09774 7.66997 7.23245 8.1068 7.23699C8.4008 7.23943 8.69236 7.18294 8.96456 7.07081C9.23676 6.95867 9.4842 6.79312 9.69252 6.58374C9.90084 6.37437 10.0659 6.12534 10.1781 5.8511C10.2904 5.57686 10.3475 5.28286 10.3463 4.98616C10.3436 4.5453 10.2118 4.11508 9.96762 3.74953C9.72341 3.38399 9.37761 3.09942 8.97366 2.93156C8.5697 2.7637 8.1256 2.72003 7.69714 2.80605C7.26868 2.89207 6.87496 3.10394 6.56542 3.41504C6.25588 3.72615 6.04434 4.12262 5.95735 4.55465C5.87037 4.98669 5.91182 5.43504 6.0765 5.84338C6.24119 6.25172 6.52176 6.60185 6.88298 6.8498Z" fill="#808080"/>
<path fill-rule="evenodd" clip-rule="evenodd" d="M8.12903 0.178406C11.112 0.178406 13.8076 1.91371 15.3447 4.78134L15.4633 4.99768L15.3447 5.21862C13.8121 8.10926 11.112 9.82155 8.12903 9.82155C5.14608 9.82155 2.45047 8.08624 0.913388 5.21862L0.7948 4.99768L0.92251 4.78134C2.44591 1.91371 5.14608 0.178406 8.12903 0.178406ZM1.83473 4.99768C3.20305 7.43263 5.56114 8.87795 8.12903 8.87795C10.6924 8.87795 13.0276 7.43263 14.4188 4.99768C13.0276 2.56733 10.6969 1.1174 8.12903 1.1174C5.56114 1.1174 3.20305 2.56272 1.83473 4.99768Z" fill="#808080"/>
</svg>
