<svg width="14" height="12" viewBox="0 0 14 12" fill="none" xmlns="http://www.w3.org/2000/svg">
<path d="M13.4803 2.77976C13.2786 2.3421 12.9877 1.94551 12.624 1.61217C12.2601 1.27783 11.831 1.01214 11.36 0.829541C10.8717 0.639445 10.3479 0.542143 9.8191 0.543284C9.07723 0.543284 8.35342 0.733652 7.72441 1.09324C7.57393 1.17925 7.43098 1.27373 7.29554 1.37667C7.16011 1.27373 7.01716 1.17925 6.86668 1.09324C6.23767 0.733652 5.51386 0.543284 4.77199 0.543284C4.23779 0.543284 3.72013 0.639173 3.23107 0.829541C2.75857 1.01286 2.33271 1.27655 1.96704 1.61217C1.60287 1.94513 1.31197 2.34182 1.11081 2.77976C0.901641 3.23523 0.7948 3.71891 0.7948 4.21669C0.7948 4.68626 0.897126 5.17558 1.10027 5.67336C1.27032 6.08935 1.5141 6.52085 1.82559 6.95658C2.31916 7.64614 2.99783 8.36531 3.84052 9.09435C5.23698 10.3028 6.61989 11.1376 6.67858 11.1715L7.03521 11.3858C7.19322 11.4803 7.39637 11.4803 7.55437 11.3858L7.91101 11.1715C7.9697 11.1362 9.3511 10.3028 10.7491 9.09435C11.5918 8.36531 12.2704 7.64614 12.764 6.95658C13.0755 6.52085 13.3208 6.08935 13.4893 5.67336C13.6925 5.17558 13.7948 4.68626 13.7948 4.21669C13.7963 3.71891 13.6894 3.23523 13.4803 2.77976ZM7.29554 10.2704C7.29554 10.2704 1.93845 7.05388 1.93845 4.21669C1.93845 2.77976 3.207 1.61499 4.77199 1.61499C5.872 1.61499 6.82605 2.19032 7.29554 3.03076C7.76504 2.19032 8.71909 1.61499 9.8191 1.61499C11.3841 1.61499 12.6526 2.77976 12.6526 4.21669C12.6526 7.05388 7.29554 10.2704 7.29554 10.2704Z" fill="#808080"/>
</svg>
